
=== 2026-05-11T06:39:10.342Z starting transcode -hide_banner -y -nostats -progress pipe:1 -i /home/awanservers/awanstream/public/uploads/1778481517996_Livestream.mp4 -map 0:v:0 -map 0:a:0? -vf scale=1920:1080:force_original_aspect_ratio=decrease,pad=1920:1080:(ow-iw)/2:(oh-ih)/2,fps=30 -c:v libx264 -preset medium -profile:v high -pix_fmt yuv420p -b:v 4500k -maxrate 4500k -bufsize 9000k -g 60 -keyint_min 60 -sc_threshold 0 -c:a aac -b:a 128k -ar 44100 -ac 2 -movflags +faststart /home/awanservers/awanstream/public/uploads/1778481517996_Livestream__1080p30_ready.mp4
=== source duration: 63.437007s
[mov,mp4,m4a,3gp,3g2,mj2 @ 0x63d7d8f196c0] Unknown cover type: 0x1.
Input #0, mov,mp4,m4a,3gp,3g2,mj2, from '/home/awanservers/awanstream/public/uploads/1778481517996_Livestream.mp4':
  Metadata:
    major_brand     : isom
    minor_version   : 512
    compatible_brands: isomiso2avc1mp41
    creation_time   : 2025-12-04T17:09:16.000000Z
    Hw              : 1
    bitrate         : 12000000
    maxrate         : 0
    te_is_reencode  : 1
    encoder         : Lavf61.1.100
  Duration: 00:01:03.44, start: 0.000000, bitrate: 9926 kb/s
  Stream #0:0[0x1](und): Video: h264 (High) (avc1 / 0x31637661), yuv420p(tv, bt709, progressive), 1920x1080 [SAR 1:1 DAR 16:9], 9726 kb/s, 30 fps, 30 tbr, 30 tbn (default)
    Metadata:
      creation_time   : 2025-12-04T17:09:16.000000Z
      handler_name    : VideoHandler
      vendor_id       : [0][0][0][0]
  Stream #0:1[0x2](und): Audio: aac (LC) (mp4a / 0x6134706D), 44100 Hz, stereo, fltp, 195 kb/s (default)
    Metadata:
      creation_time   : 2025-12-04T17:09:16.000000Z
      handler_name    : SoundHandler
      vendor_id       : [0][0][0][0]
Stream mapping:
  Stream #0:0 -> #0:0 (h264 (native) -> h264 (libx264))
  Stream #0:1 -> #0:1 (aac (native) -> aac (native))
Press [q] to stop, [?] for help
[libx264 @ 0x63d7d8fd63c0] using SAR=1/1
[libx264 @ 0x63d7d8fd63c0] using cpu capabilities: MMX2 SSE2Fast SSSE3 SSE4.2 AVX FMA3 BMI2 AVX2 AVX512
[libx264 @ 0x63d7d8fd63c0] profile High, level 4.0, 4:2:0, 8-bit
[libx264 @ 0x63d7d8fd63c0] 264 - core 164 r3108 31e19f9 - H.264/MPEG-4 AVC codec - Copyleft 2003-2023 - http://www.videolan.org/x264.html - options: cabac=1 ref=3 deblock=1:0:0 analyse=0x3:0x113 me=hex subme=7 psy=1 psy_rd=1.00:0.00 mixed_ref=1 me_range=16 chroma_me=1 trellis=1 8x8dct=1 cqm=0 deadzone=21,11 fast_pskip=1 chroma_qp_offset=-2 threads=6 lookahead_threads=1 sliced_threads=0 nr=0 decimate=1 interlaced=0 bluray_compat=0 constrained_intra=0 bframes=3 b_pyramid=2 b_adapt=1 b_bias=0 direct=1 weightb=1 open_gop=0 weightp=2 keyint=60 keyint_min=31 scenecut=0 intra_refresh=0 rc_lookahead=40 rc=cbr mbtree=1 bitrate=4500 ratetol=1.0 qcomp=0.60 qpmin=0 qpmax=69 qpstep=4 vbv_maxrate=4500 vbv_bufsize=9000 nal_hrd=none filler=0 ip_ratio=1.40 aq=1:1.00
Output #0, mp4, to '/home/awanservers/awanstream/public/uploads/1778481517996_Livestream__1080p30_ready.mp4':
  Metadata:
    major_brand     : isom
    minor_version   : 512
    compatible_brands: isomiso2avc1mp41
    te_is_reencode  : 1
    Hw              : 1
    bitrate         : 12000000
    maxrate         : 0
    encoder         : Lavf60.16.100
  Stream #0:0(und): Video: h264 (avc1 / 0x31637661), yuv420p(tv, bt709, progressive), 1920x1080 [SAR 1:1 DAR 16:9], q=2-31, 4500 kb/s, 30 fps, 15360 tbn (default)
    Metadata:
      creation_time   : 2025-12-04T17:09:16.000000Z
      handler_name    : VideoHandler
      vendor_id       : [0][0][0][0]
      encoder         : Lavc60.31.102 libx264
    Side data:
      cpb: bitrate max/min/avg: 4500000/0/4500000 buffer size: 9000000 vbv_delay: N/A
  Stream #0:1(und): Audio: aac (LC) (mp4a / 0x6134706D), 44100 Hz, stereo, fltp, 128 kb/s (default)
    Metadata:
      creation_time   : 2025-12-04T17:09:16.000000Z
      handler_name    : SoundHandler
      vendor_id       : [0][0][0][0]
      encoder         : Lavc60.31.102 aac
[mp4 @ 0x63d7d8f94940] Starting second pass: moving the moov atom to the beginning of the file
[out#0/mp4 @ 0x63d7d8f1f040] video:35110kB audio:1005kB subtitle:0kB other streams:0kB global headers:0kB muxing overhead: 0.189976%
frame= 1903 fps= 26 q=-1.0 Lsize=   36183kB time=00:01:03.41 bitrate=4674.3kbits/s speed=0.868x    
[libx264 @ 0x63d7d8fd63c0] frame I:32    Avg QP:14.79  size:222464
[libx264 @ 0x63d7d8fd63c0] frame P:551   Avg QP:18.03  size: 38504
[libx264 @ 0x63d7d8fd63c0] frame B:1320  Avg QP:23.46  size:  5771
[libx264 @ 0x63d7d8fd63c0] consecutive B-frames:  4.3%  8.4%  3.6% 83.7%
[libx264 @ 0x63d7d8fd63c0] mb I  I16..4:  8.7% 68.8% 22.4%
[libx264 @ 0x63d7d8fd63c0] mb P  I16..4:  0.5%  3.2%  0.5%  P16..4: 28.6% 14.0%  9.6%  0.0%  0.0%    skip:43.7%
[libx264 @ 0x63d7d8fd63c0] mb B  I16..4:  0.1%  1.0%  0.1%  B16..8: 19.8%  2.3%  0.5%  direct: 1.3%  skip:74.9%  L0:45.5% L1:51.9% BI: 2.6%
[libx264 @ 0x63d7d8fd63c0] 8x8 transform intra:74.9% inter:76.3%
[libx264 @ 0x63d7d8fd63c0] coded y,uvDC,uvAC intra: 77.5% 74.2% 35.3% inter: 10.8% 10.7% 0.4%
[libx264 @ 0x63d7d8fd63c0] i16 v,h,dc,p: 67% 13%  8% 12%
[libx264 @ 0x63d7d8fd63c0] i8 v,h,dc,ddl,ddr,vr,hd,vl,hu: 57% 13%  9%  2%  3%  5%  3%  6%  3%
[libx264 @ 0x63d7d8fd63c0] i4 v,h,dc,ddl,ddr,vr,hd,vl,hu: 49% 14%  7%  3%  5%  6%  5%  7%  5%
[libx264 @ 0x63d7d8fd63c0] i8c dc,h,v,p: 39% 15% 36%  9%
[libx264 @ 0x63d7d8fd63c0] Weighted P-Frames: Y:0.2% UV:0.2%
[libx264 @ 0x63d7d8fd63c0] ref P L0: 64.0% 14.2% 14.4%  7.4%
[libx264 @ 0x63d7d8fd63c0] ref B L0: 81.2% 15.1%  3.7%
[libx264 @ 0x63d7d8fd63c0] ref B L1: 92.6%  7.4%
[libx264 @ 0x63d7d8fd63c0] kb/s:4534.14
[aac @ 0x63d7d8f7f780] Qavg: 548.148

=== 2026-05-11T06:40:23.541Z transcode exit code=0 signal=null
